<?xml version="1.0" encoding="utf-8"?>
<!-- Generator: Adobe Illustrator 16.0.0, SVG Export Plug-In . SVG Version: 6.00 Build 0)  -->
<!DOCTYPE svg PUBLIC "-//W3C//DTD SVG 1.1//EN" "http://www.w3.org/Graphics/SVG/1.1/DTD/svg11.dtd">
<svg version="1.1" id="Layer_1" xmlns="http://www.w3.org/2000/svg" xmlns:xlink="http://www.w3.org/1999/xlink" x="0px" y="0px"
	 width="42px" height="60px" viewBox="0 0 42 60" enable-background="new 0 0 42 60" xml:space="preserve">
<g>
	<path fill="#234EB7" d="M0.767,1v58h40.466V1H0.767z M38.45,56.309H1.784v-53.5h36.667L38.45,56.309L38.45,56.309z"/>
	<g>
		<g>
			<g>
				<g>
					<path fill="#234EB7" d="M27.184,27.005c-0.171,0-0.346,0.022-0.52,0.065c-4.108,1.023-8.244,2.166-11.797,3.156
						c-0.483,0.134-0.971,0.861-0.899,1.34c0.075,0.498,0.666,0.99,1.125,1.08c0.121,0.024,0.252,0.037,0.387,0.037
						c0.391,0,0.787-0.099,1.156-0.203c1.636-0.477,3.271-0.957,4.907-1.438c1.396-0.413,2.793-0.825,4.19-1.231
						c0.382-0.111,0.773-0.193,1.227-0.289c0.004-0.001,0.008-0.002,0.013-0.003c-1.644,6.159-2.832,13.418-3.12,19.133
						c-0.01,0.203,0.119,0.387,0.313,0.443l0.123,0.039l0.125,0.037c0.042,0.012,0.085,0.02,0.128,0.02
						c0.073,0,0.146-0.019,0.211-0.053c0.104-0.059,0.181-0.154,0.213-0.271c0.042-0.151,0.087-0.302,0.133-0.453
						c0.097-0.326,0.198-0.665,0.277-1.011c0.362-1.611,0.721-3.674,1.07-5.668c0.375-2.141,0.76-4.354,1.156-6.055
						c0.227-0.982,0.489-1.979,0.742-2.939c0.263-1.004,0.536-2.039,0.773-3.069c0.161-0.701,0.014-1.403-0.403-1.927
						C28.34,27.275,27.783,27.005,27.184,27.005L27.184,27.005z"/>
				</g>
			</g>
			<g>
				<path fill="#234EB7" d="M17.758,8.656c-0.015,0-0.041,0.001-0.056,0.002c-0.404,0.042-0.768,0.363-0.973,0.65
					c-0.164,0.229-0.193,0.503-0.217,0.724c-0.006,0.056-0.012,0.112-0.022,0.166c-0.124,0.776-0.253,1.552-0.383,2.328
					c-0.306,1.833-0.621,3.729-0.88,5.604c-0.323,2.337-0.59,4.719-0.85,7.023l-0.189,1.676c-0.184,1.605,0.812,1.897,1.249,1.95
					c0.073,0.008,0.144,0.013,0.211,0.013c0.466,0,1.275-0.208,1.468-1.599c0.035-0.253,0.053-0.509,0.072-0.764l0.006-0.082
					c0.034-0.463,0.064-0.928,0.095-1.392c0.061-0.942,0.125-1.917,0.223-2.867c0.274-2.636,0.566-5.27,0.858-7.904l0.358-3.235
					c0.008-0.08-0.005-0.159-0.037-0.229c0.002-0.06,0.003-0.121,0.006-0.181c0.012-0.322,0.025-0.655-0.039-0.994
					C18.594,9.187,18.184,8.656,17.758,8.656L17.758,8.656z"/>
			</g>
			<g>
				<g>
					<path fill="#234EB7" d="M15.216,34.746L15.216,34.746c-0.356,0-0.802,0.261-0.976,0.57c-0.197,0.354-0.334,0.797-0.396,1.279
						c-0.158,1.221-0.278,2.352-0.369,3.459c-0.188,2.315-0.432,5.367-0.645,8.442c-0.077,1.112,0.23,2.026,0.912,2.716
						c0.084,0.084,0.197,0.133,0.314,0.133c0.019,0,0.038-0.003,0.057-0.006l0.271-0.035c0.198-0.025,0.36-0.181,0.387-0.377
						c0.057-0.412,0.116-0.822,0.175-1.234c0.128-0.883,0.26-1.793,0.36-2.698c0.35-3.183,0.688-6.44,1.003-9.685
						c0.05-0.51,0.017-1.069-0.098-1.664c-0.077-0.396-0.487-0.819-0.861-0.89C15.308,34.75,15.264,34.746,15.216,34.746
						L15.216,34.746z"/>
				</g>
			</g>
		</g>
	</g>
</g>
</svg>
