<?xml version="1.0" encoding="utf-8"?>
<!-- Generator: Adobe Illustrator 16.0.0, SVG Export Plug-In . SVG Version: 6.00 Build 0)  -->
<!DOCTYPE svg PUBLIC "-//W3C//DTD SVG 1.1//EN" "http://www.w3.org/Graphics/SVG/1.1/DTD/svg11.dtd">
<svg version="1.1" id="Layer_1" xmlns="http://www.w3.org/2000/svg" xmlns:xlink="http://www.w3.org/1999/xlink" x="0px" y="0px"
	 width="145px" height="60px" viewBox="0 0 145 60" enable-background="new 0 0 145 60" xml:space="preserve">
<g>
	<g>
		<path fill="#234EB7" d="M65.615,30.518v5.856c0,0.707-0.581,1.264-1.262,1.264s-1.237-0.557-1.237-1.264v-5.856
			c0-1.692-1.388-3.055-3.08-3.055c-1.69,0-3.055,1.363-3.055,3.055v5.856c0,0.707-0.556,1.264-1.262,1.264
			c-0.681,0-1.237-0.557-1.237-1.264V15.523c0-0.681,0.556-1.237,1.237-1.237c0.707,0,1.262,0.556,1.262,1.237v10.349
			c0.884-0.58,1.918-0.909,3.055-0.909C63.115,24.962,65.615,27.462,65.615,30.518z"/>
		<path fill="#234EB7" d="M68.543,22.111c-0.228-0.228-0.378-0.555-0.378-0.884c0-0.328,0.151-0.656,0.378-0.883
			c0.227-0.227,0.555-0.379,0.883-0.379c0.329,0,0.657,0.152,0.884,0.379c0.227,0.227,0.354,0.555,0.354,0.883
			c0,0.33-0.127,0.657-0.354,0.884c-0.228,0.227-0.555,0.353-0.884,0.353C69.098,22.464,68.77,22.338,68.543,22.111z M68.165,36.399
			V26.225c0-0.681,0.555-1.237,1.262-1.237c0.682,0,1.238,0.556,1.238,1.237v10.174c0,0.707-0.557,1.263-1.238,1.263
			C68.719,37.662,68.165,37.106,68.165,36.399z"/>
		<path fill="#234EB7" d="M100.981,31.4v4.948c0,0.732-0.53,1.263-1.262,1.263c-0.505,0-1.211-0.53-1.211-1.263
			c-1.087,0.908-2.298,1.263-3.736,1.263c-3.56,0-6.387-2.65-6.387-6.211c0-3.559,2.827-6.387,6.387-6.387
			S100.981,27.841,100.981,31.4z M98.508,31.4c0-2.12-1.616-3.912-3.736-3.912c-2.122,0-3.913,1.792-3.913,3.912
			s1.792,3.736,3.913,3.736C96.892,35.137,98.508,33.521,98.508,31.4z"/>
		<path fill="#234EB7" d="M110.575,26.225c0,0.682-0.556,1.263-1.263,1.263h-1.793v8.911c0,0.682-0.555,1.263-1.261,1.263
			c-0.682,0-1.237-0.581-1.237-1.263v-8.911h-1.817c-0.683,0-1.238-0.582-1.238-1.263c0-0.681,0.555-1.237,1.238-1.237h1.817V19.94
			c0-0.683,0.555-1.237,1.237-1.237c0.706,0,1.261,0.555,1.261,1.237v5.048h1.793C110.019,24.988,110.575,25.544,110.575,26.225z"/>
		<path fill="#234EB7" d="M113.502,22.111c-0.227-0.228-0.379-0.555-0.379-0.884c0-0.328,0.152-0.656,0.379-0.883
			c0.228-0.227,0.556-0.379,0.883-0.379c0.329,0,0.657,0.152,0.884,0.379c0.228,0.227,0.354,0.555,0.354,0.883
			c0,0.33-0.126,0.657-0.354,0.884c-0.227,0.227-0.555,0.353-0.884,0.353C114.058,22.464,113.73,22.338,113.502,22.111z"/>
		<path fill="#234EB7" d="M113.124,36.399V26.225c0-0.681,0.555-1.237,1.262-1.237c0.682,0,1.238,0.556,1.238,1.237v10.174
			c0,0.707-0.556,1.263-1.238,1.263C113.679,37.662,113.124,37.106,113.124,36.399z"/>
		<path fill="#234EB7" d="M143.366,31.4v4.948c0,0.732-0.529,1.263-1.262,1.263c-0.505,0-1.211-0.53-1.211-1.263
			c-1.085,0.908-2.297,1.263-3.736,1.263c-3.559,0-6.387-2.65-6.387-6.211c0-3.559,2.829-6.387,6.387-6.387
			C140.716,25.014,143.366,27.841,143.366,31.4z M140.893,31.4c0-2.12-1.616-3.912-3.736-3.912c-2.12,0-3.913,1.792-3.913,3.912
			s1.793,3.736,3.913,3.736C139.277,35.137,140.893,33.521,140.893,31.4z"/>
		<path fill="#234EB7" d="M113.124,36.399V26.225c0-0.681,0.555-1.237,1.262-1.237c0.682,0,1.238,0.556,1.238,1.237v10.174
			c0,0.707-0.556,1.263-1.238,1.263C113.679,37.662,113.124,37.106,113.124,36.399z"/>
		<path fill="#234EB7" d="M79.549,25.063c-3.483,0-6.336,2.853-6.336,6.337v0.024v13.026c0,0.707,0.555,1.263,1.262,1.263
			c0.682,0,1.237-0.556,1.237-1.263V36.45c1.061,0.807,2.398,1.287,3.837,1.287c3.509,0,6.337-2.828,6.337-6.337
			C85.887,27.917,83.058,25.063,79.549,25.063z M79.549,35.238c-2.121,0-3.837-1.718-3.837-3.813V31.4
			c0-2.12,1.716-3.837,3.837-3.837c2.121,0,3.837,1.742,3.837,3.837C83.387,33.521,81.67,35.238,79.549,35.238z"/>
		<path fill="#234EB7" d="M126.984,25.063c-0.683,0-1.237,0.556-1.237,1.237v6.261c0,1.438-1.161,2.601-2.6,2.601
			c-1.414,0-2.601-1.162-2.601-2.601v-6.261c0-0.681-0.555-1.237-1.236-1.237s-1.236,0.556-1.236,1.237v6.286c0,0,0,0,0,0.025
			c0.024,2.776,2.296,5.025,5.074,5.025c0.959,0,1.843-0.253,2.6-0.708v7.521c0,0.707,0.555,1.263,1.262,1.263
			c0.682,0,1.238-0.556,1.238-1.263v-18.15C128.246,25.62,127.69,25.063,126.984,25.063z"/>
	</g>
	<g>
		<path fill="#234EB7" d="M1,1v58h40.466V1H1z M38.683,56.309H2.017v-53.5h36.667V56.309z"/>
		<g>
			<g>
				<g>
					<g>
						<path fill="#234EB7" d="M27.417,27.005c-0.171,0-0.346,0.022-0.52,0.065c-4.108,1.023-8.244,2.166-11.797,3.156
							c-0.483,0.134-0.971,0.861-0.899,1.341c0.075,0.497,0.666,0.989,1.125,1.08c0.121,0.024,0.252,0.037,0.387,0.037
							c0.391,0,0.787-0.099,1.156-0.204c1.636-0.476,3.271-0.957,4.907-1.438c1.396-0.413,2.793-0.825,4.19-1.231
							c0.382-0.111,0.773-0.193,1.227-0.289c0.004-0.001,0.008-0.002,0.013-0.003c-1.644,6.158-2.832,13.419-3.12,19.134
							c-0.01,0.202,0.119,0.386,0.313,0.443l0.123,0.039l0.125,0.037c0.042,0.012,0.085,0.02,0.128,0.02
							c0.073,0,0.146-0.019,0.211-0.054c0.104-0.058,0.181-0.154,0.213-0.27c0.042-0.151,0.087-0.301,0.133-0.453
							c0.097-0.326,0.198-0.665,0.277-1.01c0.362-1.612,0.721-3.674,1.07-5.668c0.375-2.141,0.76-4.354,1.156-6.056
							c0.227-0.982,0.489-1.978,0.742-2.939c0.263-1.003,0.536-2.039,0.773-3.069c0.161-0.701,0.014-1.403-0.403-1.927
							C28.573,27.275,28.016,27.005,27.417,27.005L27.417,27.005z"/>
					</g>
				</g>
				<g>
					<path fill="#234EB7" d="M17.991,8.656c-0.015,0-0.041,0.001-0.056,0.002c-0.404,0.042-0.768,0.363-0.973,0.65
						c-0.164,0.229-0.193,0.503-0.217,0.724c-0.006,0.056-0.012,0.112-0.022,0.166c-0.124,0.776-0.253,1.552-0.383,2.328
						c-0.306,1.833-0.621,3.729-0.88,5.604c-0.323,2.337-0.59,4.719-0.85,7.023l-0.189,1.676c-0.184,1.605,0.812,1.897,1.249,1.95
						c0.073,0.008,0.144,0.013,0.211,0.013c0.466,0,1.275-0.208,1.468-1.599c0.035-0.253,0.053-0.509,0.072-0.764l0.006-0.082
						c0.034-0.463,0.064-0.928,0.095-1.392c0.061-0.942,0.125-1.917,0.223-2.867c0.274-2.636,0.566-5.27,0.858-7.904l0.358-3.235
						c0.008-0.08-0.005-0.159-0.037-0.229c0.002-0.06,0.003-0.121,0.006-0.181c0.012-0.322,0.025-0.655-0.039-0.994
						C18.827,9.187,18.417,8.656,17.991,8.656L17.991,8.656z"/>
				</g>
				<g>
					<g>
						<path fill="#234EB7" d="M15.449,34.746L15.449,34.746c-0.356,0-0.802,0.261-0.976,0.571c-0.197,0.354-0.334,0.796-0.396,1.278
							c-0.158,1.222-0.278,2.353-0.369,3.46c-0.188,2.315-0.432,5.367-0.645,8.442c-0.077,1.112,0.23,2.026,0.912,2.716
							c0.084,0.084,0.197,0.132,0.314,0.132c0.019,0,0.038-0.002,0.057-0.005l0.271-0.035c0.198-0.025,0.36-0.181,0.387-0.378
							c0.057-0.411,0.116-0.821,0.175-1.233c0.128-0.883,0.26-1.794,0.36-2.699c0.35-3.183,0.688-6.441,1.003-9.684
							c0.05-0.51,0.017-1.07-0.098-1.665c-0.077-0.396-0.487-0.819-0.861-0.889C15.541,34.75,15.497,34.746,15.449,34.746
							L15.449,34.746z"/>
					</g>
				</g>
			</g>
		</g>
	</g>
</g>
</svg>
