<svg xmlns="http://www.w3.org/2000/svg" viewBox="0 0 50 50"><defs><style>.a{fill:#1C3ED3;}.b{fill:#fff;}</style></defs><path class="a" d="M37,33.05H27.67L23,24.92l4.7-8.06h9.33L41.72,25Z"/><path class="a" d="M22.26,41.5H12.93L8.28,33.38,13,25.32h9.33L27,33.44Z"/><path class="a" d="M36.93,50H27.59L23,41.88l4.69-8.06h9.34l4.64,8.09Z"/><path class="a" d="M22.34,24.65H13L8.36,16.53l4.69-8.06h9.34L27,16.59Z"/><path class="a" d="M37,16.18H27.66L23,8.06,27.73,0h9.34l4.64,8.09Z"/><circle class="b" cx="32.37" cy="8.09" r="1.41"/><circle class="b" cx="17.7" cy="16.56" r="1.41"/><circle class="b" cx="17.62" cy="33.41" r="1.41"/><circle class="b" cx="32.29" cy="41.91" r="1.41"/><rect class="b" x="17.654" y="11.932" width="14.8" height="0.47" transform="translate(-2.734 14.05) rotate(-29.78)"/><rect class="b" x="17.434" y="17.658" width="0.47" height="14.79" transform="translate(-0.074 0.053) rotate(-0.17)"/><rect class="b" x="24.793" y="30.405" width="0.47" height="14.8" transform="matrix(0.51, -0.86, 0.86, 0.51, -20.256, 40.04)"/><circle class="b" cx="32.38" cy="24.95" r="1.41"/><rect class="b" x="32.109" y="9.084" width="0.47" height="14.79" transform="translate(-0.049 0.096) rotate(-0.17)"/><rect class="b" x="32.189" y="26.044" width="0.47" height="14.79" transform="translate(-0.099 0.096) rotate(-0.17)"/><rect class="b" x="17.67" y="28.928" width="14.8" height="0.47" transform="translate(-11.174 16.303) rotate(-29.78)"/><rect class="b" x="24.83" y="13.551" width="0.47" height="14.798" transform="translate(-5.74 31.823) rotate(-59.331)"/></svg>
